# Blender v2.78 (sub 0) OBJ File: 'modelloader_test_rectangle.blend'
# www.blender.org

mtllib modelloader_test_rectangle.mtl

o Cube
v 1.000000 -1.000000 -3.000000

v 1.000000 -1.000000 3.000000

v -1.000000 -1.000000 2.999999

v -1.000000 -1.000000 -3.000001

v 1.000000 1.000000 -2.999999

v 0.999999 1.000000 3.000002

v -1.000000 1.000000 2.999999

v -1.000000 1.000000 -3.000000

vt 0.4991 0.0000

vt 0.3327 0.7500

vt 0.3327 0.0000

vt 0.1664 0.0000

vt 0.3327 0.7500

vt 0.1664 0.7500

vt 0.0000 0.7500

vt 0.1664 0.0000

vt 0.1664 0.7500

vt 0.0000 0.7500

vt 0.1664 1.0000

vt 0.0000 1.0000

vt 0.4991 0.0000

vt 0.6655 0.7500

vt 0.4991 0.7500

vt 0.3327 1.0000

vt 0.1664 1.0000

vt 0.4991 0.7500

vt 0.3327 0.0000

vt 0.0000 0.0000

vt 0.1664 0.7500

vt 0.6655 0.0000

vt 0.3327 0.7500

vn 0.0000 -1.0000 0.0000

vn 0.0000 1.0000 0.0000

vn 1.0000 -0.0000 0.0000

vn -0.0000 -0.0000 1.0000

vn -1.0000 -0.0000 -0.0000

vn 0.0000 0.0000 -1.0000

usemtl Material
s off

f 1/1/1 3/2/1 4/3/1

f 5/4/2 7/5/2 6/6/2

f 5/7/3 2/8/3 1/9/3

f 6/10/4 3/11/4 2/12/4

f 3/13/5 8/14/5 4/15/5

f 1/9/6 8/16/6 5/17/6

f 1/1/1 2/18/1 3/2/1

f 5/4/2 8/19/2 7/5/2

f 5/7/3 6/20/3 2/8/3

f 6/10/4 7/21/4 3/11/4

f 3/13/5 7/22/5 8/14/5

f 1/9/6 4/23/6 8/16/6
